# This file uses centimeters as units for non-parametric coordinates.

mtllib table_01.mtl
g default
v -0.914422 1.576732 1.954630
v 0.977966 1.560034 1.992292
v 0.992934 1.555784 -1.927746
v -0.883651 1.585221 -1.954075
v 2.570561 0.127520 -2.523843
v 1.428774 0.306169 -2.259559
v 1.670198 0.574755 -1.492512
v 2.359002 0.157414 -1.583720
v 1.039034 1.073200 -2.031841
v 1.175745 1.248389 -1.567709
v 1.023886 1.582122 -1.441095
v -0.953806 1.586899 -1.439439
v 1.026613 1.577630 -0.344510
v -0.965383 1.587051 -0.383548
v 1.021318 1.576389 0.812662
v -0.939974 1.581616 0.800909
v 1.305000 0.459590 -0.907885
v 1.756856 0.149968 -0.699455
v 1.171431 0.995374 -0.968688
v 1.106377 0.614915 0.237621
v 1.196674 0.161191 0.235337
v 1.119567 1.037662 0.228484
v 1.134899 0.828123 1.166086
v 1.180750 0.343878 1.175180
v 1.166717 1.100428 1.708527
v 1.229936 0.510098 1.725911
v 1.483406 0.614936 1.922325
v 1.269818 1.114610 1.984841
v 1.242353 0.853813 2.380433
v 1.616076 0.410796 2.516061
v 1.580817 0.127520 2.632884
v 0.899999 0.132110 2.440561
v 1.490822 0.127520 3.016313
v 0.812225 0.127520 2.836374
v 0.358558 0.554571 2.524493
v 0.284029 0.214892 2.754125
v -1.146484 0.113733 3.596714
v -0.247081 0.113733 3.998334
v -0.817107 0.119940 2.853981
v -0.486617 0.939323 2.197427
v -0.879086 1.098943 2.359684
v -0.776889 0.215287 2.775062
v -0.391633 0.295743 2.515587
v -0.382760 1.585255 1.963279
v -0.389102 1.567986 0.804210
v -0.405887 1.567986 -0.372583
v -0.398327 1.601489 -1.439898
v -0.356566 1.584831 -1.945530
v 0.475015 1.579363 -1.932701
v 0.477775 1.567996 -1.440634
v 0.476546 1.567987 -0.355290
v 0.479730 1.567987 0.809416
v 0.455606 1.584430 1.979962
v 0.590417 0.753716 2.180029
v -2.496215 0.136716 1.539380
v -2.675516 0.127520 2.447513
v -1.532271 0.127534 2.647610
v -1.661225 0.487668 1.924728
v -1.301212 1.239428 1.780661
v -1.118291 1.465141 0.856915
v -1.162785 0.879786 0.790010
v -1.769707 0.155401 0.528553
v -2.114224 0.127520 2.545754
v -2.039847 0.289148 1.687018
v -1.312038 0.321784 0.741474
v -1.102562 0.466000 -0.713771
v -1.129786 0.145075 -0.841855
v -1.125510 1.441524 -0.495972
v -1.119234 0.921796 -0.721066
v -1.161381 1.259254 -1.434023
v -1.243298 0.706710 -1.511105
v -1.289134 0.388436 -1.529293
v -1.172950 1.283497 -2.027067
v -1.320811 0.828691 -1.907265
v -1.482235 0.493814 -1.908966
v -1.682599 0.439491 -2.438365
v -1.378887 0.824374 -2.271567
v -1.105732 1.254667 -2.163989
v -1.180766 0.674167 -2.378899
v -1.692496 0.351889 -2.597435
v -0.965281 1.146656 -2.252629
v -1.602614 0.127517 -2.732801
v -1.039700 0.269347 -2.305204
v -1.480582 0.127520 -3.132257
v -0.854557 0.127520 -2.908010
v 0.316333 0.355891 -2.616162
v -0.198194 0.113733 -4.004045
v -1.106229 0.113733 -3.670956
v 0.516463 0.453501 -2.545207
v 0.706929 1.305010 -2.191132
v 0.889727 1.294789 -2.254053
v 0.712861 0.379298 -2.897337
v 0.942432 0.160996 -2.658221
v 1.399448 0.155840 -2.691355
v 1.986441 0.127520 -2.610292
v -0.604943 0.276573 -2.318241
v -0.559500 1.126797 -2.227475
v 2.946522 0.062638 -1.989589
v 3.221384 0.062638 -3.171078
v 2.164201 0.062638 -0.878299
v 1.436402 0.062638 0.296490
v 1.415713 0.062638 1.477627
v 1.479616 0.062638 2.169753
v 1.808929 0.062638 2.416593
v 1.981297 0.062638 3.162765
v 1.935488 0.062638 3.309580
v 0.936917 0.062638 3.565315
v 1.818565 0.062638 3.791452
v 0.250674 0.062638 3.461949
v -1.179944 0.062638 3.587441
v -1.607877 0.062638 4.520864
v -0.439355 0.062638 5.025595
v -1.127693 0.062638 3.488262
v -3.361477 0.062638 1.935332
v -3.594427 0.062638 3.076617
v -2.865185 0.062638 3.200080
v -2.109099 0.062638 3.328087
v -2.417582 0.062638 0.664986
v -1.586183 0.062638 -1.057259
v -1.793211 0.062638 -1.921188
v -2.044092 0.062638 -2.398338
v -2.304409 0.062638 -3.063655
v -2.317267 0.062638 -3.263565
v -2.200490 0.062638 -3.433684
v -1.228600 0.062638 -3.653877
v -2.041945 0.062638 -3.935696
v 0.292644 0.062638 -3.287099
v -0.375840 0.062638 -5.031306
v -1.555578 0.062638 -4.612699
v 0.552657 0.062638 -3.197927
v 0.807822 0.062638 -3.640462
v 1.106085 0.062638 -3.339957
v 1.699849 0.062638 -3.381597
v 2.462483 0.062638 -3.279723
vt 0.332919 0.660435
vt 0.291960 0.657274
vt 0.304573 0.563679
vt 0.350751 0.570963
vt 0.044278 0.290012
vt 0.053823 0.201845
vt 0.149042 0.245369
vt 0.112744 0.319487
vt 0.198522 0.298718
vt 0.183349 0.341056
vt 0.370692 0.353811
vt 0.373578 0.390957
vt 0.327504 0.384301
vt 0.330994 0.344479
vt 0.364091 0.474018
vt 0.317054 0.468455
vt 0.224251 0.326710
vt 0.210279 0.361929
vt 0.059770 0.387600
vt 0.108873 0.383932
vt 0.154682 0.388411
vt 0.197048 0.450637
vt 0.071592 0.486596
vt 0.110559 0.490803
vt 0.146133 0.493029
vt 0.079378 0.575641
vt 0.120528 0.576301
vt 0.185773 0.548087
vt 0.142812 0.624257
vt 0.093177 0.627720
vt 0.145330 0.650643
vt 0.103429 0.658241
vt 0.184096 0.642226
vt 0.142811 0.690601
vt 0.100822 0.720316
vt 0.163935 0.755412
vt 0.103492 0.749390
vt 0.168776 0.786988
vt 0.104345 0.785013
vt 0.221690 0.783701
vt 0.221450 0.746642
vt 0.325398 0.799286
vt 0.350663 0.862759
vt 0.265729 0.894635
vt 0.288623 0.767247
vt 0.298576 0.712749
vt 0.336557 0.707220
vt 0.327559 0.788283
vt 0.231633 0.553516
vt 0.225756 0.648471
vt 0.242932 0.457914
vt 0.255832 0.370157
vt 0.263529 0.330052
vt 0.199237 0.712454
vt 0.514000 0.778683
vt 0.461376 0.774358
vt 0.481042 0.693652
vt 0.527125 0.694257
vt 0.404730 0.776949
vt 0.435382 0.702166
vt 0.373313 0.659785
vt 0.367997 0.579265
vt 0.415181 0.583285
vt 0.461774 0.588392
vt 0.504819 0.581611
vt 0.491358 0.443343
vt 0.465418 0.455299
vt 0.383285 0.466991
vt 0.428228 0.452123
vt 0.405715 0.389662
vt 0.452178 0.380250
vt 0.479846 0.379586
vt 0.401622 0.340084
vt 0.441126 0.342337
vt 0.472108 0.336068
vt 0.434284 0.307269
vt 0.471894 0.277375
vt 0.400491 0.328447
vt 0.420848 0.285799
vt 0.473477 0.258855
vt 0.464722 0.231672
vt 0.409926 0.250871
vt 0.399523 0.199077
vt 0.458158 0.191940
vt 0.287051 0.217488
vt 0.347558 0.101412
vt 0.428013 0.136939
vt 0.244630 0.300299
vt 0.267200 0.227092
vt 0.229048 0.296568
vt 0.238815 0.201780
vt 0.201085 0.209390
vt 0.159835 0.204402
vt 0.107020 0.201925
vt 0.372476 0.243201
vt 0.390644 0.316274
vt 0.357063 0.308510
vt 0.008149 0.236106
vt 0.017947 0.128599
vt 0.032208 0.358928
vt 0.049251 0.488012
vt 0.048508 0.605876
vt 0.056018 0.674829
vt 0.063801 0.714166
vt 0.058950 0.782637
vt 0.059504 0.797437
vt 0.146696 0.845678
vt 0.059201 0.843531
vt 0.219154 0.845772
vt 0.355492 0.860327
vt 0.388854 0.942620
vt 0.282443 0.986282
vt 0.353851 0.850894
vt 0.585892 0.755253
vt 0.572138 0.857337
vt 0.510433 0.847775
vt 0.444718 0.843442
vt 0.553910 0.613167
vt 0.528661 0.424434
vt 0.518002 0.328067
vt 0.519391 0.275543
vt 0.531468 0.211903
vt 0.532165 0.193581
vt 0.524308 0.176615
vt 0.439830 0.140321
vt 0.516820 0.130141
vt 0.286370 0.154311
vt 0.370528 0.013718
vt 0.473062 0.056945
vt 0.259547 0.163311
vt 0.231319 0.130309
vt 0.198396 0.150694
vt 0.146625 0.139916
vt 0.080198 0.137205
vn -0.354958 0.890054 0.286023
vn -0.020549 0.918059 0.395911
vn 0.006874 0.999964 -0.005010
vn -0.205620 0.978613 0.006050
vn 0.303947 0.951943 0.037702
vn 0.136476 0.987666 -0.076747
vn 0.416071 0.827406 -0.377206
vn 0.584858 0.810720 0.025944
vn 0.798558 0.391744 -0.456993
vn 0.903238 0.418758 -0.093825
vn -0.321419 0.873345 -0.366004
vn -0.287298 0.957768 -0.011830
vn 0.011497 0.999906 0.007485
vn 0.011591 0.890528 -0.454781
vn -0.157212 0.987542 0.006706
vn 0.012445 0.999891 0.007889
vn 0.471460 0.832664 -0.290510
vn 0.533379 0.845807 -0.010822
vn 0.401551 0.872560 0.278201
vn 0.782152 0.548853 0.294956
vn 0.946609 0.281702 0.156766
vn 0.619782 0.784596 0.016717
vn 0.810162 0.582370 0.066952
vn 0.990406 0.131852 0.041357
vn 0.989166 0.143053 0.032974
vn 0.913982 0.398783 -0.074897
vn 0.987939 0.149252 -0.041228
vn 0.605985 0.795474 -0.001709
vn 0.967195 0.235090 -0.096266
vn 0.934861 0.176110 -0.308255
vn 0.848257 0.523283 0.081460
vn 0.906529 0.208823 -0.366878
vn 0.379424 0.877063 0.294615
vn 0.230591 0.509320 0.829109
vn 0.548035 0.620534 0.560888
vn -0.035109 0.731022 0.681450
vn -0.189645 0.808926 0.556483
vn 0.026032 0.995450 0.091660
vn 0.018965 0.998012 0.060104
vn -0.004384 0.940398 0.340047
vn 0.024139 0.470259 0.882199
vn -0.023204 0.996180 0.084187
vn -0.070413 0.997286 0.021523
vn 0.033357 0.997358 0.064532
vn 0.100306 0.590167 0.801026
vn 0.082282 0.437303 0.895542
vn -0.276313 0.533770 0.799212
vn 0.034641 0.815627 0.577540
vn -0.000121 0.999991 -0.004177
vn -0.014088 0.914255 0.404895
vn -0.001806 0.999986 0.005060
vn 0.007582 0.999961 0.004524
vn -0.052696 0.781566 -0.621593
vn 0.150426 0.364325 0.919043
vn -0.078122 0.996395 0.033091
vn -0.082043 0.989458 0.119337
vn -0.272616 0.958795 -0.079955
vn -0.159725 0.984985 -0.065524
vn -0.184392 0.935679 0.300839
vn -0.758723 0.640525 0.118605
vn -0.869630 0.475291 0.133574
vn -0.914580 0.398216 -0.070481
vn -0.978319 0.161828 -0.129241
vn -0.770479 0.620202 -0.147346
vn -0.219590 0.971174 -0.092748
vn -0.518940 0.854541 -0.021460
vn -0.983966 0.173401 -0.041757
vn -0.976782 0.214110 -0.007293
vn -0.997596 0.068770 0.008534
vn -0.954239 0.292846 0.060568
vn -0.972832 0.128565 0.192535
vn -0.776237 0.550886 0.306561
vn -0.779131 0.548861 -0.302831
vn -0.923837 0.332565 0.189541
vn -0.791244 0.502304 0.348746
vn -0.758679 0.584997 -0.286681
vn -0.683594 0.717896 0.131624
vn -0.511761 0.513044 -0.689120
vn 0.106747 0.159511 -0.981408
vn 0.080874 0.843394 -0.531175
vn 0.060696 0.966726 -0.248511
vn 0.073633 0.790998 -0.607371
vn -0.087458 0.990790 -0.103380
vn -0.017372 0.995904 -0.088732
vn -0.094177 0.750127 -0.654553
vn 0.053365 0.993250 -0.102993
vn -0.090021 0.994843 -0.046734
vn -0.151434 0.546461 -0.823680
vn -0.362973 0.591869 -0.719681
vn 0.578634 0.429588 -0.693280
vn 0.279284 0.786377 -0.551010
vn 0.551080 0.710389 -0.437787
vn 0.022997 0.982387 -0.185435
vn 0.043258 0.981478 -0.186629
vn -0.076608 0.532704 -0.842827
vn 0.009249 0.337154 -0.941404
vn -0.028562 0.364201 -0.930882
vn 0.156654 0.987036 0.034927
vn 0.064593 0.996872 -0.045534
vn 0.294034 0.934482 0.200717
vn 0.487920 0.870525 0.064190
vn 0.826365 0.551142 -0.115596
vn 0.786317 -0.096308 -0.610271
vn 0.890081 0.364119 -0.274177
vn -0.084340 0.898610 0.430565
vn 0.025630 0.994142 0.105002
vn 0.000302 0.993807 0.111117
vn 0.009133 0.996817 0.079204
vn 0.171300 0.974286 0.146363
vn -0.754254 0.562691 -0.338349
vn -0.021419 0.998762 0.044906
vn -0.004807 0.998675 0.051232
vn -0.009425 0.990360 0.138198
vn -0.093906 0.995250 -0.025684
vn -0.057725 0.998044 0.023985
vn -0.014169 0.996494 0.082459
vn -0.035160 0.995036 0.093101
vn -0.145441 0.985358 -0.088981
vn -0.295084 0.954213 0.049015
vn -0.673297 0.629451 0.387896
vn -0.699889 0.661031 0.270542
vn -0.476922 0.878544 -0.026588
vn 0.157036 0.895334 -0.416794
vn 0.002705 0.991176 -0.132527
vn -0.067585 0.996452 -0.050158
vn -0.026810 0.997749 -0.061469
vn 0.353261 0.894916 -0.272638
vn 0.003923 0.998462 -0.055301
vn -0.019892 0.998785 -0.045084
vn -0.389618 0.805030 -0.447354
vn 0.214319 0.939347 -0.267760
vn 0.237443 0.959428 -0.152052
vn 0.022318 0.993755 -0.109328
vn 0.020037 0.995702 -0.090426
s 1
g polySurface1
usemtl lambert4SG
f 1/1/1 44/2/2 45/3/3 16/4/4
f 8/5/5 5/6/6 6/7/7 7/8/8
f 7/8/8 6/7/7 9/9/9 10/10/10
f 4/11/11 12/12/12 47/13/13 48/14/14
f 12/12/12 14/15/15 46/16/16 47/13/13
f 16/4/4 45/3/3 46/16/16 14/15/15
f 10/10/10 9/9/9 3/17/17 11/18/18
f 18/19/19 8/5/5 7/8/8 17/20/20
f 19/21/21 17/20/20 7/8/8 10/10/10
f 11/18/18 13/22/22 19/21/21 10/10/10
f 18/19/19 17/20/20 21/23/23
f 21/23/23 17/20/20 20/24/24
f 20/24/24 17/20/20 19/21/21 22/25/25
f 24/26/26 21/23/23 20/24/24 23/27/27
f 13/22/22 15/28/28 22/25/25 19/21/21
f 23/27/27 20/24/24 22/25/25 15/28/28
f 23/27/27 25/29/29 26/30/30 24/26/26
f 28/31/31 27/32/32 25/29/29
f 25/29/29 27/32/32 26/30/30
f 25/29/29 23/27/27 15/28/28 2/33/33
f 29/34/34 30/35/35 27/32/32 28/31/31
f 32/36/36 31/37/37 30/35/35 29/34/34
f 34/38/38 33/39/39 31/37/37 32/36/36
f 34/38/38 32/36/36 36/40/40
f 36/40/40 32/36/36 35/41/41
f 39/42/42 37/43/43 38/44/44 36/40/40
f 43/45/45 40/46/46 41/47/47 42/48/48
f 35/41/41 40/46/46 43/45/45 36/40/40
f 42/48/48 39/42/42 36/40/40 43/45/45
f 52/49/49 53/50/50 2/33/33 15/28/28
f 13/22/22 51/51/51 52/49/49 15/28/28
f 11/18/18 50/52/52 51/51/51 13/22/22
f 3/17/17 49/53/53 50/52/52 11/18/18
f 48/14/14 47/13/13 50/52/52 49/53/53
f 50/52/52 47/13/13 46/16/16 51/51/51
f 51/51/51 46/16/16 45/3/3 52/49/49
f 52/49/49 45/3/3 44/2/2 53/50/50
f 40/46/46 35/41/41 53/50/50 44/2/2
f 1/1/1 41/47/47 44/2/2
f 44/2/2 41/47/47 40/46/46
f 25/29/29 2/33/33 28/31/31
f 28/31/31 2/33/33 29/34/34
f 32/36/36 29/34/34 54/54/54
f 35/41/41 54/54/54 53/50/50
f 53/50/50 54/54/54 2/33/33
f 35/41/41 32/36/36 54/54/54
f 56/55/55 63/56/56 64/57/57 55/58/58
f 42/48/48 41/47/47 57/59/59
f 57/59/59 41/47/47 58/60/60
f 59/61/61 58/60/60 41/47/47 1/1/1
f 59/61/61 1/1/1 16/4/4 60/62/62
f 59/61/61 60/62/62 61/63/63 58/60/60
f 64/57/57 65/64/64 62/65/65 55/58/58
f 64/57/57 63/56/56 58/60/60
f 58/60/60 63/56/56 57/59/59
f 61/63/63 65/64/64 58/60/60
f 58/60/60 65/64/64 64/57/57
f 67/66/66 62/65/65 66/67/67
f 66/67/67 62/65/65 65/64/64
f 60/62/62 16/4/4 14/15/15 68/68/68
f 61/63/63 60/62/62 68/68/68 69/69/69
f 66/67/67 65/64/64 61/63/63 69/69/69
f 69/69/69 68/68/68 70/70/70
f 70/70/70 68/68/68 12/12/12
f 71/71/71 66/67/67 69/69/69 70/70/70
f 72/72/72 67/66/66 66/67/67 71/71/71
f 70/70/70 12/12/12 4/11/11 73/73/73
f 70/70/70 73/73/73 74/74/74 71/71/71
f 75/75/75 72/72/72 71/71/71 74/74/74
f 77/76/76 76/77/77 75/75/75 74/74/74
f 77/76/76 74/74/74 78/78/78
f 78/78/78 74/74/74 73/73/73
f 77/76/76 79/79/79 76/77/77
f 76/77/77 79/79/79 80/80/80
f 82/81/81 80/80/80 83/82/82
f 83/82/82 80/80/80 79/79/79
f 85/83/83 84/84/84 82/81/81 83/82/82
f 85/83/83 86/85/85 87/86/86 88/87/87
f 90/88/88 89/89/89 86/85/85 49/53/53
f 90/88/88 91/90/90 89/89/89
f 89/89/89 91/90/90 92/91/91
f 9/9/9 93/92/92 92/91/91 91/90/90
f 9/9/9 6/7/7 93/92/92
f 93/92/92 6/7/7 94/93/93
f 95/94/94 94/93/93 6/7/7 5/6/6
f 85/83/83 83/82/82 96/95/95
f 96/95/95 83/82/82 79/79/79
f 79/79/79 81/96/96 97/97/97 96/95/95
f 97/97/97 49/53/53 86/85/85 96/95/95
f 96/95/95 86/85/85 85/83/83
f 97/97/97 81/96/96 48/14/14 49/53/53
f 12/12/12 68/68/68 14/15/15
f 90/88/88 49/53/53 3/17/17 91/90/90
f 3/17/17 9/9/9 91/90/90
f 4/11/11 48/14/14 81/96/96 73/73/73
f 73/73/73 81/96/96 78/78/78
f 81/96/96 79/79/79 77/76/76 78/78/78
f 29/34/34 2/33/33 54/54/54
f 5/6/6 8/5/5 98/98/98 99/99/99
f 8/5/5 18/19/19 100/100/100 98/98/98
f 18/19/19 21/23/23 101/101/101 100/100/100
f 21/23/23 24/26/26 102/102/102 101/101/101
f 24/26/26 26/30/30 103/103/103 102/102/102
f 26/30/30 27/32/32 104/104/104 103/103/103
f 27/32/32 30/35/35 105/105/105 104/104/104
f 30/35/35 31/37/37 106/106/106 105/105/105
f 33/39/39 34/38/38 107/107/107 108/108/108
f 31/37/37 33/39/39 108/108/108 106/106/106
f 34/38/38 36/40/40 109/109/109 107/107/107
f 37/43/43 39/42/42 110/110/110 111/111/111
f 38/44/44 37/43/43 111/111/111 112/112/112
f 36/40/40 38/44/44 112/112/112 109/109/109
f 39/42/42 42/48/48 113/113/113 110/110/110
f 56/55/55 55/58/58 114/114/114 115/115/115
f 63/56/56 56/55/55 115/115/115 116/116/116
f 42/48/48 57/59/59 117/117/117 113/113/113
f 55/58/58 62/65/65 118/118/118 114/114/114
f 57/59/59 63/56/56 116/116/116 117/117/117
f 62/65/65 67/66/66 119/119/119 118/118/118
f 67/66/66 72/72/72 120/120/120 119/119/119
f 72/72/72 75/75/75 121/121/121 120/120/120
f 75/75/75 76/77/77 122/122/122 121/121/121
f 76/77/77 80/80/80 123/123/123 122/122/122
f 80/80/80 82/81/81 124/124/124 123/123/123
f 84/84/84 85/83/83 125/125/125 126/126/126
f 82/81/81 84/84/84 126/126/126 124/124/124
f 87/86/86 86/85/85 127/127/127 128/128/128
f 88/87/87 87/86/86 128/128/128 129/129/129
f 85/83/83 88/87/87 129/129/129 125/125/125
f 86/85/85 89/89/89 130/130/130 127/127/127
f 89/89/89 92/91/91 131/131/131 130/130/130
f 92/91/91 93/92/92 132/132/132 131/131/131
f 93/92/92 94/93/93 133/133/133 132/132/132
f 94/93/93 95/94/94 134/134/134 133/133/133
f 95/94/94 5/6/6 99/99/99 134/134/134
