# This file uses centimeters as units for non-parametric coordinates.

mtllib candle_01.mtl
g default
v 1.819746 0.003448 0.540035
v 0.723463 0.003448 0.896239
v 0.723463 0.003448 2.048939
v 1.819746 0.003448 2.405143
v 2.497286 0.003448 1.472589
v 1.792629 2.595875 0.660818
v 0.838335 2.595875 0.970887
v 0.838335 2.595875 1.974291
v 1.792628 2.595875 2.284359
v 2.382414 2.595875 1.472589
v 1.528868 2.770254 1.472589
v -0.908739 0.005794 0.757099
v -2.005022 0.005794 1.113303
v -2.005023 0.005794 2.266004
v -0.908739 0.005794 2.622208
v -0.231199 0.005794 1.689654
v -0.935857 4.362156 0.877883
v -1.890151 4.362156 1.187952
v -1.890151 4.362156 2.191356
v -0.935857 4.362156 2.501424
v -0.346071 4.362156 1.689654
v -1.199617 4.655185 1.689654
v -0.985718 0.002027 -3.140403
v -2.082001 0.002027 -2.784199
v -2.082001 0.002027 -1.631499
v -0.985718 0.002027 -1.275295
v -0.308178 0.002027 -2.207849
v -1.012835 1.526106 -3.019620
v -1.967129 1.526106 -2.709551
v -1.967129 1.526106 -1.706147
v -1.012835 1.526106 -1.396078
v -0.423049 1.526106 -2.207849
v -1.276596 1.628623 -2.207849
vt 0.758540 0.017660
vt 0.974742 0.017660
vt 0.196717 0.921541
vt 0.652819 0.921541
vt 0.240689 0.017660
vt 0.346448 0.921541
vt 0.417545 0.017660
vt 0.452887 0.921541
vt 0.581481 0.017660
vt 0.546587 0.921541
vt 0.499646 0.982340
vt 0.802598 0.921541
vt 0.024931 0.017660
vt 0.758540 0.017660
vt 0.974742 0.017660
vt 0.802598 0.921541
vt 0.652819 0.921541
vt 0.024931 0.017660
vt 0.240689 0.017660
vt 0.346448 0.921541
vt 0.196717 0.921541
vt 0.417545 0.017660
vt 0.452887 0.921541
vt 0.581481 0.017660
vt 0.546587 0.921541
vt 0.499646 0.982340
vt 0.758540 0.017660
vt 0.974742 0.017660
vt 0.802598 0.921541
vt 0.652819 0.921541
vt 0.024931 0.017660
vt 0.240689 0.017660
vt 0.346448 0.921541
vt 0.196717 0.921541
vt 0.417545 0.017660
vt 0.452887 0.921541
vt 0.581481 0.017660
vt 0.546587 0.921541
vt 0.499646 0.982340
vn 0.307059 0.047497 -0.950505
vn -0.808508 0.052703 -0.586121
vn -0.800442 0.140275 -0.582766
vn 0.307681 0.135445 -0.941800
vn -0.808508 0.052703 0.586121
vn -0.800442 0.140275 0.582766
vn 0.307059 0.047497 0.950505
vn 0.307681 0.135445 0.941800
vn 0.999020 0.044267 0.000000
vn 0.991188 0.132465 0.000000
vn -0.000000 1.000000 -0.000000
vn 0.307942 0.028284 -0.950985
vn -0.808982 0.031390 -0.586995
vn -0.805691 0.085726 -0.586100
vn 0.308868 0.082764 -0.947497
vn -0.808982 0.031390 0.586995
vn -0.805691 0.085726 0.586100
vn 0.307942 0.028284 0.950985
vn 0.308868 0.082764 0.947497
vn 0.999653 0.026360 0.000000
vn 0.996719 0.080937 0.000000
vn -0.000000 1.000000 0.000000
vn 0.305248 0.080628 -0.948854
vn -0.806832 0.089415 -0.583975
vn -0.786162 0.231129 -0.573175
vn 0.303697 0.223478 -0.926189
vn -0.806832 0.089415 0.583975
vn -0.786162 0.231129 0.573175
vn 0.305248 0.080628 0.948853
vn 0.303698 0.223478 0.926189
vn 0.997172 0.075158 0.000000
vn 0.975779 0.218758 0.000000
vn -0.000000 1.000000 0.000000
s 1
g pCylinder4
usemtl initialShadingGroup
f 1/1/1 2/2/2 7/12/3 6/4/4
f 2/13/2 3/5/5 8/6/6 7/3/3
f 3/5/5 4/7/7 9/8/8 8/6/6
f 4/7/7 5/9/9 10/10/10 9/8/8
f 5/9/9 1/1/1 6/4/4 10/10/10
f 6/4/4 7/12/3 11/11/11
f 7/3/3 8/6/6 11/11/11
f 8/6/6 9/8/8 11/11/11
f 9/8/8 10/10/10 11/11/11
f 10/10/10 6/4/4 11/11/11
s 2
f 12/14/12 13/15/13 18/16/14 17/17/15
f 13/18/13 14/19/16 19/20/17 18/21/14
f 14/19/16 15/22/18 20/23/19 19/20/17
f 15/22/18 16/24/20 21/25/21 20/23/19
f 16/24/20 12/14/12 17/17/15 21/25/21
f 17/17/15 18/16/14 22/26/22
f 18/21/14 19/20/17 22/26/22
f 19/20/17 20/23/19 22/26/22
f 20/23/19 21/25/21 22/26/22
f 21/25/21 17/17/15 22/26/22
s 3
f 23/27/23 24/28/24 29/29/25 28/30/26
f 24/31/24 25/32/27 30/33/28 29/34/25
f 25/32/27 26/35/29 31/36/30 30/33/28
f 26/35/29 27/37/31 32/38/32 31/36/30
f 27/37/31 23/27/23 28/30/26 32/38/32
f 28/30/26 29/29/25 33/39/33
f 29/34/25 30/33/28 33/39/33
f 30/33/28 31/36/30 33/39/33
f 31/36/30 32/38/32 33/39/33
f 32/38/32 28/30/26 33/39/33
